# xmcd CD database file
# Copyright (C) 1993-1998 Ti Kan
#
# Track frame offsets:
#	150
#	12463
#	25175
#	38438
#	55538
#	67810
#	92025
#	105930
#	119720
#	134935
#	156075
#	168135
#
# Disc length: 2423 seconds
#
# Revision: 1
# Processed by: cddbd v1.4b41PL1 Copyright (c) Steve Scherf et al.
# Submitted via: NotifyCDPlayer(CDDB) 1.51.1
#
DISCID=9109750c
DTITLE=Big Joe Louis and His Blues Kings - The stars in the sky
DYEAR=1900
DGENRE=
TTITLE0=I'm So Glad
TTITLE1=I Need You Pretty Naby For My Own
TTITLE2=She's Yours, She's Mine
TTITLE3=Baby Child
TTITLE4=You Lied To Me, Baby
TTITLE5=Real Life
TTITLE6=Boogie Twist
TTITLE7=Trouble At Your Door
TTITLE8=Married Woman
TTITLE9=Why Don't You Do Right?
TTITLE10=The Stars In The Sky
TTITLE11=The Music Woman I Love
EXTD=
EXTT0=
EXTT1=
EXTT2=
EXTT3=
EXTT4=
EXTT5=
EXTT6=
EXTT7=
EXTT8=
EXTT9=
EXTT10=
EXTT11=
PLAYORDER=
